<svg width="24" height="24" viewBox="0 0 24 24"  xmlns="http://www.w3.org/2000/svg">
  <path  d="M10.783 2.63C12.81 2.113 14.825 2.22 16.762 2.946C19.318 3.856 21.273 6.388 21.727 9.123C22.183 11.86 21.08 14.586 18.882 16.51C17.383 17.803 15.657 18.542 13.902 18.698L12 20L10.098 18.698C8.343 18.542 6.617 17.803 5.118 16.51C2.92 14.586 1.817 11.86 2.273 9.123C2.727 6.388 4.682 3.856 7.238 2.946C9.175 2.22 11.19 2.113 13.217 2.63C14.132 2.859 15.08 3.145 16 3.486V8H14V4.764C12.003 4.269 10.107 5.021 8.952 6.428C8.327 7.225 8 8.206 8 9.222C8 10.987 9.346 12.4 11 12.89V14H9V16H11V18H13V16H15V14H13V12.89C14.654 12.4 16 10.987 16 9.222C16 8.206 15.673 7.225 15.048 6.428C13.894 5.021 11.997 4.269 10 4.764V8H8V3.486C8.92 3.145 9.868 2.859 10.783 2.63ZM21 10H15V12H21V10Z" fill="black"/>
</svg>
